# xmcd CD database file
#
# Track frame offsets:
#	150
#	25167
#	44425
#	63585
#	88687
#
# Disc length: 1468 seconds
#
# Revision: 0
# Processed by: cddbd v1.5.1PL0 Copyright (c) Steve Scherf et al.
# Submitted via: CDex 1.40Beta9
#
DISCID=3c05ba05
DTITLE=Ryu - 聞こえない告白
DYEAR=2004
DGENRE=J-Pop
TTITLE0=聞こえない告白 (Japanese Ver.)
TTITLE1=あなただけが (Japanese Ver.)
TTITLE2=初恋 (Korean Ver.)
TTITLE3=聞こえない告白 (Korean Ver.)
TTITLE4=最初から今まで〜2004 Japan Live Ver.
EXTD=YEAR: 2004/12/15
EXTT0=
EXTT1=
EXTT2=
EXTT3=
EXTT4=
PLAYORDER=
